<svg width="360" height="115" viewBox="0 0 360 115" fill="none" xmlns="http://www.w3.org/2000/svg">
<path d="M65.7129 102.85C41.0594 117.178 26.4518 117.916 3.20291 103.539C1.19395 102.297 0 100.077 0 97.7145V6.5C0 2.63401 3.134 -0.5 6.99999 -0.5H352.5C356.366 -0.5 359.5 2.63401 359.5 6.5V77.2119C359.5 83.569 351.526 86.6585 345.99 83.5339C335.815 77.7911 323.646 78.0433 301.304 86.3224C300.133 86.7564 299.087 87.5189 298.302 88.4907C283.733 106.531 273.222 115.998 232.619 113.381C229.578 113.185 227.115 110.947 226.113 108.07C221.91 96.006 213.866 94.8081 194 101.5C163.122 112.667 149.31 110.888 134.727 88.8945C133.918 87.6746 132.754 86.6964 131.394 86.1546C95.2132 71.7363 78.6322 70.9505 68.8391 98.9762C68.2756 100.589 67.1901 101.992 65.7129 102.85Z" fill="#FFC436" stroke="#FFC436"/>
</svg>
